name D:\school\WTK\thesis\model\3dpredictsim\Results\batch_windlass\Pog_s1_tmt_bCst_d00_k1000_WL20_ig24.mot
datacolumns 128
datarows 4
range 0.51615218 0.54712131
endheader
time	pelvis_tilt	pelvis_list	pelvis_rotation	pelvis_tx	pelvis_ty	pelvis_tz	hip_flexion_l	hip_adduction_l	hip_rotation_l	hip_flexion_r	hip_adduction_r	hip_rotation_r	knee_angle_l	knee_angle_r	ankle_angle_l	ankle_angle_r	subtalar_angle_l	subtalar_angle_r	tmt_angle_l	tmt_angle_r	mtp_angle_l	mtp_angle_r	lumbar_extension	lumbar_bending	lumbar_rotation	arm_flex_l	arm_add_l	arm_rot_l	arm_flex_r	arm_add_r	arm_rot_r	elbow_flex_l	elbow_flex_r	pro_sup_l	pro_sup_r	glut_med1_l/activation	glut_med2_l/activation	glut_med3_l/activation	glut_min1_l/activation	glut_min2_l/activation	glut_min3_l/activation	semimem_l/activation	semiten_l/activation	bifemlh_l/activation	bifemsh_l/activation	sar_l/activation	add_long_l/activation	add_brev_l/activation	add_mag1_l/activation	add_mag2_l/activation	add_mag3_l/activation	tfl_l/activation	pect_l/activation	grac_l/activation	glut_max1_l/activation	glut_max2_l/activation	glut_max3_l/activation	iliacus_l/activation	psoas_l/activation	quad_fem_l/activation	gem_l/activation	peri_l/activation	rect_fem_l/activation	vas_med_l/activation	vas_int_l/activation	vas_lat_l/activation	med_gas_l/activation	lat_gas_l/activation	soleus_l/activation	tib_post_l/activation	flex_dig_l/activation	flex_hal_l/activation	tib_ant_l/activation	per_brev_l/activation	per_long_l/activation	per_tert_l/activation	ext_dig_l/activation	ext_hal_l/activation	ercspn_l/activation	intobl_l/activation	extobl_l/activation	glut_med1_r/activation	glut_med2_r/activation	glut_med3_r/activation	glut_min1_r/activation	glut_min2_r/activation	glut_min3_r/activation	semimem_r/activation	semiten_r/activation	bifemlh_r/activation	bifemsh_r/activation	sar_r/activation	add_long_r/activation	add_brev_r/activation	add_mag1_r/activation	add_mag2_r/activation	add_mag3_r/activation	tfl_r/activation	pect_r/activation	grac_r/activation	glut_max1_r/activation	glut_max2_r/activation	glut_max3_r/activation	iliacus_r/activation	psoas_r/activation	quad_fem_r/activation	gem_r/activation	peri_r/activation	rect_fem_r/activation	vas_med_r/activation	vas_int_r/activation	vas_lat_r/activation	med_gas_r/activation	lat_gas_r/activation	soleus_r/activation	tib_post_r/activation	flex_dig_r/activation	flex_hal_r/activation	tib_ant_r/activation	per_brev_r/activation	per_long_r/activation	per_tert_r/activation	ext_dig_r/activation	ext_hal_r/activation	ercspn_r/activation	intobl_r/activation	extobl_r/activation	
          0.51615218	         -2.92951288	          1.24886315	         -4.83011508	          0.64519022	          0.86158362	          0.00136444	         31.36286771	          1.66711213	         -3.39906406	        -17.66646899	         -0.78611469	          7.04436047	        -18.81790965	         -7.09794649	          1.65097565	          0.55306820	          2.75364681	         11.14533631	         -0.35938498	         -4.47523486	          1.58163336	         25.23094607	         -1.17685473	          0.53791002	          1.56325557	         -6.56658847	        -13.52248069	          9.52971186	          5.27638659	        -13.45013652	         15.58495070	         16.41053399	         28.82369698	         86.51662706	         86.51662706	          0.05000021	          0.05575860	          0.05000106	          0.05860273	          0.05860153	          0.05000128	          0.05641979	          0.05583286	          0.08838914	          0.05000026	          0.05000033	          0.13319645	          0.15019859	          0.15495544	          0.13671031	          0.08376444	          0.05000053	          0.05000565	          0.06356301	          0.05012686	          0.06345219	          0.11005401	          0.06094179	          0.05860316	          0.22903833	          0.10389099	          0.05010501	          0.05014168	          0.07455213	          0.07810688	          0.06450225	          0.06868512	          0.06868509	          0.06802441	          0.05000021	          0.05006244	          0.05002863	          0.46336337	          0.26779427	          0.15840837	          0.20477565	          0.54744017	          0.05860252	          0.06086546	          0.13197712	          0.13503682	          0.31750320	          0.11005892	          0.06897369	          0.34234580	          0.22364362	          0.11060665	          0.05000117	          0.05000017	          0.05000015	          0.08050236	          0.10193787	          0.05000012	          0.05000013	          0.05000023	          0.05000062	          0.05000051	          0.33302177	          0.05000048	          0.05000060	          0.05004812	          0.05000609	          0.05000137	          0.33140593	          0.55784120	          0.05000072	          0.05012632	          0.05860249	          0.20067198	          0.05000392	          0.05000752	          0.05000879	          0.32793022	          0.42447418	          0.28434214	          0.24897792	          0.23699970	          0.30877790	          0.05000002	          0.10987757	          0.18866757	          0.05000009	          0.05000002	          0.05000010	          0.05000001	          0.05000003	          0.05000002	
          0.52647522	         -2.92431530	          1.35357271	         -5.08841760	          0.66042883	          0.86078085	          0.00117583	         30.89677163	          2.06174853	         -3.22761550	        -17.48239098	         -1.07359706	          6.84577873	        -18.35386147	         -8.95596625	          1.37599849	         -0.18503590	          2.24835656	         12.01402011	         -0.41816762	         -4.93741801	          1.86443564	         26.37336697	         -1.01485519	          0.28878487	          1.62261756	         -7.42229986	        -13.51604199	          9.31473178	          5.16274535	        -13.45514815	         15.94520447	         16.23100749	         29.64858568	         86.51662706	         86.51662706	          0.05860241	          0.05000032	          0.05000131	          0.05000045	          0.05000041	          0.05000100	          0.05860255	          0.05860244	          0.07989571	          0.05000016	          0.05000056	          0.11549826	          0.16459581	          0.15406370	          0.15803149	          0.09795608	          0.05000052	          0.05860191	          0.07509755	          0.05000077	          0.06867470	          0.12598885	          0.05199593	          0.05000058	          0.27222933	          0.08864395	          0.05079436	          0.05000006	          0.12145175	          0.12395603	          0.10556772	          0.05860253	          0.05860253	          0.05860253	          0.05000008	          0.05000017	          0.05000031	          0.50934468	          0.26472560	          0.15122752	          0.31595956	          0.56186261	          0.05000030	          0.05283366	          0.11260360	          0.11521415	          0.27089565	          0.09390288	          0.05884874	          0.29209149	          0.19081398	          0.09437021	          0.05000063	          0.05000013	          0.05000008	          0.06868506	          0.08697407	          0.11214187	          0.05000107	          0.05000046	          0.05000090	          0.05000047	          0.28413614	          0.05943694	          0.05000028	          0.05000101	          0.05000072	          0.05000057	          0.28275741	          0.52559147	          0.05000006	          0.05000013	          0.05000005	          0.17121443	          0.10211253	          0.06801527	          0.06361173	          0.27979184	          0.36216367	          0.24260225	          0.21242940	          0.20220965	          0.26345109	          0.05000000	          0.09989274	          0.16097232	          0.05000008	          0.05000001	          0.05000005	          0.05000001	          0.05000003	          0.05000005	
          0.53679826	         -2.91400336	          1.45937231	         -5.32528413	          0.67595704	          0.85988849	          0.00098119	         30.33860285	          2.45053525	         -3.00146791	        -17.20544994	         -1.35335938	          6.62895640	        -18.43159549	        -10.99446004	          1.17596263	         -1.02812864	          1.71822838	         12.84884331	         -0.48053404	         -5.35889954	          2.11314445	         27.30725722	         -0.83211387	          0.02982250	          1.67626932	         -8.29725166	        -13.51174389	          9.12879885	          4.97403779	        -13.46759495	         16.23914461	         16.07146925	         30.46629302	         86.51662706	         86.51662706	          0.05000002	          0.05000008	          0.07326676	          0.05000005	          0.05000009	          0.05000012	          0.05000004	          0.05000015	          0.06816747	          0.05014137	          0.05860285	          0.09854391	          0.14043412	          0.35191796	          0.23220837	          0.08357682	          0.05000016	          0.05000129	          0.06407420	          0.05860133	          0.05860257	          0.12202328	          0.05000088	          0.06868546	          0.56391749	          0.11662131	          0.06232449	          0.06868516	          0.21494991	          0.21242877	          0.18373322	          0.05000000	          0.05000001	          0.05000000	          0.05000002	          0.05860278	          0.05000309	          0.59810682	          0.22806667	          0.13869327	          0.59481064	          0.59691918	          0.26826346	          0.05000000	          0.09607400	          0.09830134	          0.23112966	          0.08011846	          0.05327505	          0.24921412	          0.16280355	          0.08051720	          0.05004112	          0.05000046	          0.05000165	          0.05860250	          0.07420686	          0.18896297	          0.13223704	          0.14094687	          0.05003745	          0.12771243	          0.24242665	          0.06671388	          0.05000845	          0.05000106	          0.05000078	          0.05000091	          0.24125017	          0.45798606	          0.05000033	          0.05860372	          0.05860263	          0.14608110	          0.08712352	          0.15191204	          0.15191184	          0.23871990	          0.30900001	          0.20698955	          0.18124595	          0.17252647	          0.22477795	          0.05000055	          0.08522905	          0.13734247	          0.05000010	          0.05000043	          0.05000025	          0.05000001	          0.06961513	          0.05408152	
          0.54712131	         -2.89958088	          1.57516843	         -5.53970802	          0.69172409	          0.85888345	          0.00080548	         29.62617766	          2.79475585	         -2.70863915	        -16.86012713	         -1.63176869	          6.39668509	        -18.94710478	        -13.16100491	          1.30923329	         -1.95681109	          1.13404988	         13.61989877	         -0.61749475	         -5.73164253	          2.24056466	         27.90407429	         -0.63132026	         -0.24723586	          1.71951008	         -9.18110892	        -13.51777676	          8.99509707	          4.71474795	        -13.48361141	         16.46486587	         15.92231654	         31.28774073	         86.51662706	         86.51662706	          0.29702336	          0.24848147	          0.30606514	          0.05000160	          0.05000028	          0.33920471	          0.08563636	          0.05000014	          0.09254006	          0.05000003	          0.05000043	          0.08407838	          0.24981566	          0.30025838	          0.19812184	          0.12799151	          0.05000026	          0.06869351	          0.10542423	          0.05000005	          0.05000008	          0.11057009	          0.05860255	          0.05860283	          0.48113746	          0.09950199	          0.19318021	          0.05860256	          0.19501902	          0.20913861	          0.17690397	          0.05475620	          0.05418877	          0.05860252	          0.05000003	          0.05000028	          0.05000029	          0.52503779	          0.19458775	          0.11833386	          0.50749584	          0.55654889	          0.27290494	          0.05000002	          0.09374458	          0.08387123	          0.31204175	          0.06835751	          0.05000009	          0.21263107	          0.13890491	          0.06869773	          0.05000080	          0.05000024	          0.05000020	          0.05000008	          0.06331381	          0.16314135	          0.29506755	          0.12025684	          0.05860305	          0.10896559	          0.26191782	          0.06867613	          0.05000137	          0.05005343	          0.05010718	          0.05859502	          0.20583598	          0.42904675	          0.05001155	          0.05000117	          0.05000010	          0.12463720	          0.09176502	          0.12961229	          0.12961209	          0.20367711	          0.26364048	          0.17660460	          0.15464003	          0.14720057	          0.19178180	          0.14246744	          0.16404058	          0.16678237	          0.05000026	          0.17107455	          0.12818647	          0.06881715	          0.05939601	          0.05860255	
